<svg width="1063" height="263" viewBox="0 0 1063 263" fill="none" xmlns="http://www.w3.org/2000/svg">
<path opacity="0.5" d="M28.1996 29.7791C57.5322 7.38932 96.1058 21.9967 126.202 32.4114C141.16 37.5878 156.056 41.6674 171.499 43.9274C182.986 45.6083 194.896 47.4154 205.952 41.9532C222.865 33.598 237.879 22.7635 255.615 16.2889C284.097 5.8911 310.456 3.4314 338.077 17.9341C348.393 23.351 358.009 30.8978 368.76 35.0436C381.025 39.7731 394.146 41.337 406.916 41.7065C418.566 42.0435 429.133 40.7334 440.311 36.8533C456.963 31.0725 472.634 28.9659 490.039 29.6146C506.433 30.2256 523.106 32.0121 539.106 36.6888C548.517 39.4394 557.232 44.3814 566.483 47.7113C573.976 50.408 581.347 53.5656 587.711 47.629C590.638 44.8982 600.943 47.5148 602.589 47.7113C619.745 49.759 636.866 52.2234 654.103 52.9757C672.038 53.7585 690.242 52.8867 707.601 46.8887C719.439 42.7983 727.86 29.5524 737.491 20.7308C746.587 12.3996 757.333 5.31785 768.704 3.45674C793.574 -0.613855 822.48 3.21412 842.966 23.034C846.78 26.7244 850.425 26.8155 855.067 27.6404C865.2 29.4411 875.089 32.6396 884.825 36.5242C897.488 41.5769 912.783 42.753 925.824 41.7887C940.177 40.7275 954.539 37.5913 968.808 35.3726C980.392 33.5714 991.658 29.7385 1003.46 31.8356C1015.51 33.9762 1027.42 40.4185 1034.47 53.058C1044.73 71.4387 1056.37 92.0443 1059.67 114.504C1061.35 125.977 1061.81 138.325 1058.81 149.546C1055.24 162.86 1045.68 171.264 1037.05 179.323C1015.28 199.664 994.529 218.611 967.485 224.318C952.952 227.385 938.327 226.703 923.642 226.703C908.47 226.703 893.238 227.227 878.08 226.374C861.14 225.421 844.172 223.788 827.425 220.452C820.493 219.071 813.584 217.485 806.595 216.586C805.215 216.408 803.014 216.822 801.834 215.599C800.368 214.079 797.249 214.913 795.486 214.776C786.65 214.089 778.014 211.638 769.233 210.416C746.175 207.209 719.053 207.43 696.954 217.902C679.27 226.282 660.507 232.248 642.002 236.903C622.602 241.784 602.514 240.692 582.883 242.99C565.635 245.01 547.766 245.952 530.444 245.952C522.524 245.952 514.906 245.831 507.1 244.142C458.946 233.725 412.11 210.435 363.073 205.399C319.256 200.898 284.495 245.815 242.984 257.139C228.145 261.187 209.735 265.729 198.612 249.818C196.813 247.244 195.642 240.549 191.867 241.592C181.636 244.42 170.818 244.471 160.192 244.471C155.237 244.471 148.058 246.14 143.13 244.389C140.974 243.622 138.536 239.631 135.393 238.549C127.168 235.715 118.8 234.419 110.86 230.487C95.6096 222.936 79.4433 218.824 64.0411 211.897C50.4459 205.783 33.834 198.334 22.0497 187.96C2.807 171.021 1.85778 141.777 2.01283 115.162C2.07574 104.363 3.46609 95.0181 5.31924 84.5626C7.3741 72.969 8.46287 59.5023 15.2385 50.4257C20.725 43.0761 27.4058 36.6891 32.9608 29.7791" stroke="#6D58B7" stroke-width="4" stroke-linecap="round"/>
</svg>
