<svg width="301" height="271" viewBox="0 0 301 271" fill="none" xmlns="http://www.w3.org/2000/svg">
<path d="M296.918 176.738C294.563 162.191 292.208 147.668 289.853 133.121C294.191 130.191 297.438 126.228 298.975 120.813C301.256 112.715 299.099 103.78 296.843 95.9521C292.977 82.4632 288.614 69.0727 284.499 55.6576C279.815 40.421 275.303 19.203 258.547 12.4832C247.914 8.20018 236.636 12.5078 226.473 15.9539C215.145 19.7692 203.941 23.9044 192.762 28.089C187.805 18.2676 180.815 9.52938 171.322 4.80333C156.077 -2.80266 136.644 -0.58732 121.475 5.96023C98.0261 16.1015 81.1709 40.7902 84.3188 64.7159C74.8502 66.242 65.555 71.4357 57.177 75.7925C46.3202 81.4293 35.7361 87.9277 25.8957 95.2136C24.7555 96.0506 24.805 97.429 25.4247 98.2905C22.4007 99.9889 19.5502 102.623 17.0219 106.438C9.73448 117.441 7.72672 132.702 5.37195 145.379C2.52143 160.665 0.786334 176.172 0.216231 191.728C-0.948762 224.048 2.52143 257.278 12.3867 288.194C10.9243 290.459 12.8576 294.397 16.3526 293.683C40.8175 288.76 64.9353 290.68 88.0121 300.181C87.6155 301.56 88.6814 303.357 90.5652 302.938C145.593 290.754 198.885 271.53 249.921 247.875C261.968 242.287 274.361 236.774 285.887 230.152C293.621 225.697 299.198 220.159 300.561 211.1C302.247 199.999 298.653 187.618 296.893 176.763L296.918 176.738ZM123.111 11.7939C136.496 5.81254 154.615 3.35105 168.149 10.2432C176.378 14.4523 182.277 21.9845 186.59 30.5012C184.583 31.7074 185.549 35.178 188.127 34.415C188.226 34.3904 188.301 34.3658 188.4 34.3411C190.928 40.0518 192.812 46.0332 194.25 51.6208C184.707 66.9312 174.569 40.6672 171.222 34.4396C168.298 28.9997 164.456 24.8152 158.928 21.9353C147.898 16.2 133.62 17.0615 122.466 21.9106C112.502 26.2429 103.603 34.1935 101.05 45.0486C99.9347 49.75 100.43 54.4269 101.224 59.0791C100.802 59.3006 100.381 59.4975 99.9595 59.6944C98.4475 60.4575 99.4885 63.0174 101.124 62.4267C101.348 62.3528 101.571 62.279 101.794 62.2051C101.893 62.7959 102.017 63.362 102.116 63.9528C102.884 68.1619 104.049 72.3711 103.925 76.7033C103.727 83.7185 102.711 88.1492 97.1833 85.86C82.4598 56.593 92.4986 25.4552 123.16 11.7693L123.111 11.7939ZM163.761 35.3996C144.353 40.101 124.92 47.5839 106.85 56.2976C105.314 35.6211 124.4 22.3045 144.7 24.1998C154.491 25.1106 159.672 29.2213 163.761 35.3996ZM56.7308 82.6847C65.9516 78.1556 76.6101 74.9556 85.1864 69.3927C86.5497 74.9802 89.0532 80.4447 92.8704 85.6385C92.7465 86.0569 92.8208 86.5 93.2422 86.8446C93.8123 87.2877 94.3576 87.7554 94.9029 88.1984C95.0269 88.3461 95.1508 88.5184 95.2995 88.6907C95.5226 88.9369 95.7705 89.0599 96.0184 89.1092C97.2081 90.0691 98.4227 91.0291 99.5877 92.0383C100.455 92.7522 101.521 92.7768 102.389 92.0383C112.378 83.5708 109.18 71.608 107.321 60.359C127.101 53.59 147.03 47.4609 166.885 40.9133C167.727 42.5379 168.57 44.2363 169.438 46.0332C171.718 50.7839 174.098 55.5345 178.46 58.7345C185.004 63.559 194.844 63.0667 199.083 55.9037C200.397 55.3376 201.388 54.0084 201.016 52.2361C199.703 45.9101 197.645 39.0672 194.795 32.5196C201.958 30.452 209.122 28.3597 216.236 26.169C225.853 23.1906 236.883 17.9477 247.046 17.5784C268.041 16.84 273.048 42.0948 277.807 57.5529C283.012 74.4141 291.936 93.2198 292.977 110.967C293.448 119.238 290.349 124.111 285.268 127.607C284.772 127.804 284.301 128.099 283.929 128.468C280.955 130.265 277.46 131.693 273.643 133.071C271.957 133.687 270.247 134.277 268.561 134.893C267.719 134.893 266.851 135.188 266.157 135.754C260.109 137.896 254.086 140.037 248.186 142.499C248.013 142.573 247.864 142.646 247.715 142.745C246.773 138.117 245.361 133.564 243.378 129.158C240.304 122.241 233.562 110.77 224.068 114.315C216.062 117.293 217.128 127.631 217.946 134.253C218.615 139.791 219.483 145.477 220.995 150.917C209.543 153.255 198.265 158.006 187.235 161.723C176.081 165.464 164.902 169.206 153.847 173.243C151.715 164.012 147.749 155.151 143.585 149.711C136.62 140.628 125.565 141.736 120.582 151.951C113.121 167.187 120.211 188.898 128.688 202.165C129.208 202.953 129.927 203.199 130.596 203.101C135.579 210.436 147.204 208.59 152.136 200.417C155.557 194.731 156.053 186.633 154.813 178.363C166.885 174.695 178.832 170.658 190.804 166.671C201.314 163.151 212.419 160.32 222.457 155.569C224.044 159.852 226.151 163.889 229.051 167.507C229.447 168 230.067 168.123 230.637 167.975C230.935 168.369 231.306 168.714 231.802 168.886C237.032 170.855 241.097 170.363 246.327 168.32C247.715 167.778 248.36 166.867 248.533 165.44C249.178 159.803 249.203 154.166 248.583 148.628C248.955 148.628 249.351 148.628 249.797 148.48C255.003 146.905 260.332 145.231 265.636 143.41C267.396 153.477 269.305 163.495 271.164 173.538C272.106 178.584 274.882 185.673 274.386 190.744C273.841 196.479 269.528 203.371 265.042 206.571C263.034 208.023 260.506 209.082 258.299 210.214C238.619 220.405 217.5 227.42 196.357 233.918C175.56 240.294 154.813 247.26 133.794 252.872C126.06 254.939 118.822 253.881 114.857 245.807C112.675 241.377 112.551 234.583 111.709 229.734C109.453 216.762 107.743 203.716 106.404 190.621C110.469 189.513 114.286 188.258 117.36 187.372C121.4 186.215 119.69 179.938 115.625 181.095C107.321 183.458 93.1678 188.996 86.1035 183.409C80.3777 178.88 80.9974 167.114 79.5845 159.975C76.7836 145.969 72.4954 131.816 66.0508 119.016C59.854 106.709 45.7006 94.6967 32.7121 95.9767C40.5696 91.2999 48.4767 86.7461 56.706 82.6847H56.7308ZM242.783 163.101C239.412 163.988 236.165 163.963 232.521 163.643C232.025 163.594 231.629 163.692 231.282 163.84C229.001 158.277 226.894 152.763 225.655 146.831C224.787 142.646 224.267 138.413 223.796 134.179C223.151 128.173 221.689 126.942 227.836 124.235C231.43 120.862 233.959 121.552 235.421 126.253C236.437 128.025 237.33 129.847 238.073 131.742C239.536 135.114 240.701 138.511 241.543 142.105C243.204 149.145 243.452 156.037 242.783 163.126V163.101ZM134.19 197.07C133.472 195.125 131.513 194.731 130.125 195.421C125.069 182.966 119.244 163.84 126.953 153.329C136.744 139.939 144.428 163.914 146.138 169.944C147.228 173.76 148.17 177.673 148.74 181.612C148.964 183.729 149.187 185.845 149.41 187.962C150.451 196.578 145.394 199.63 134.215 197.094L134.19 197.07ZM15.9808 286.471C9.23873 257.179 4.85142 227.838 5.52067 197.685C5.86769 181.956 7.3797 166.277 10.1063 150.769C12.3867 137.847 14.2953 121.945 21.2109 110.499C26.8376 101.195 38.2892 99.5705 47.3613 105.183C55.3179 110.13 59.7796 119.115 63.2498 127.41C69.2483 141.785 73.1399 157.095 75.0237 172.529C75.4699 176.073 75.6434 179.913 76.6348 183.31C76.0152 183.482 75.5194 183.975 75.569 184.738C78.246 220.626 83.4017 256.244 85.8556 292.182C63.4977 283.64 39.5533 281.302 15.9808 286.446V286.471ZM294.018 207.507C293.15 222.275 276.369 227.543 264.942 233.18C253.912 238.62 242.783 243.838 231.554 248.81C186.64 268.699 140.04 284.354 92.796 297.818C92.8208 297.621 92.8704 297.425 92.8456 297.228C90.5156 261.192 87.8138 224.294 79.7084 188.947C80.6008 189.858 81.6666 190.67 82.9803 191.31C88.2352 193.895 95.5722 193.132 102.612 191.507C102.934 206.227 104.198 220.897 106.677 235.42C108.164 244.133 108.561 255.899 118.327 259.542C127.895 263.111 139.892 257.598 148.889 254.915C164.084 250.386 179.278 245.881 194.448 241.352C220.697 233.475 248.682 225.574 271.982 210.731C280.856 205.07 283.087 199.014 281.327 188.775C278.625 172.824 275.427 156.874 272.131 141.022C276.072 139.57 279.963 138.043 283.731 136.394L288.986 169.994C290.845 181.956 294.737 195.396 294.018 207.531V207.507Z" fill="white"/>
</svg>
